<?xml version="1.0" standalone="no"?>
<!DOCTYPE svg PUBLIC "-//W3C//DTD SVG 20010904//EN"
 "http://www.w3.org/TR/2001/REC-SVG-20010904/DTD/svg10.dtd">
<svg version="1.0" xmlns="http://www.w3.org/2000/svg"
 width="512.000000pt" height="512.000000pt" viewBox="0 0 512.000000 512.000000"
 preserveAspectRatio="xMidYMid meet">
<metadata>
Created by potrace 1.11, written by Peter Selinger 2001-2013
</metadata>
<g transform="translate(0.000000,512.000000) scale(0.100000,-0.100000)"
fill="#000000" stroke="none">
<path d="M2805 3568 c-5 -14 -204 -541 -315 -833 -37 -99 -114 -301 -170 -450
-55 -148 -105 -279 -110 -290 -5 -11 -65 -168 -134 -350 l-124 -330 110 -3
c61 -1 112 -1 113 0 2 3 781 2043 836 2191 l28 77 -115 0 c-83 0 -116 -3 -119
-12z"/>
<path d="M1525 3111 c-71 -32 -161 -72 -198 -89 -38 -18 -70 -32 -72 -32 -3 0
-28 -11 -57 -24 -89 -40 -140 -63 -411 -182 -144 -64 -289 -128 -322 -143 -33
-15 -95 -42 -138 -61 l-77 -34 0 -76 0 -76 257 -114 c142 -62 285 -126 318
-140 33 -15 94 -42 135 -60 41 -18 108 -48 148 -66 41 -19 75 -34 77 -34 3 0
33 -13 67 -29 68 -31 296 -132 366 -162 l43 -19 -3 111 -3 110 -485 210 c-267
115 -503 218 -525 228 -22 10 -50 22 -62 25 -13 4 -23 11 -23 15 0 4 111 55
248 113 136 59 369 159 517 223 149 64 285 124 303 133 l32 17 0 107 c0 60 -1
108 -2 107 -2 0 -61 -26 -133 -58z"/>
<path d="M3462 3059 l3 -110 230 -99 c127 -55 239 -104 250 -109 23 -11 369
-161 518 -224 53 -22 97 -44 97 -47 0 -3 -12 -10 -27 -17 -16 -7 -134 -57
-263 -113 -129 -55 -244 -105 -255 -110 -11 -6 -139 -61 -285 -124 l-265 -115
-3 -110 -3 -111 78 34 c108 47 161 70 213 94 25 11 108 48 185 82 77 33 154
67 170 75 35 17 60 28 463 205 l302 134 0 76 0 76 -137 61 c-76 34 -313 139
-528 233 -214 95 -408 180 -430 190 -73 33 -229 102 -273 121 l-43 19 3 -111z"/>
</g>
</svg>
